<svg version="1.0" xmlns="http://www.w3.org/2000/svg" width="170.667" height="170.667" viewBox="0 0 128 128"><path d="M64.6 12.8c-.9 1-3.1 2-4.9 2-4.4.3-6.5.7-7.3 1.5-.4.4-1.5.7-2.5.7-.9 0-3 .7-4.5 1.5-1.6.8-3.8 1.2-4.9.9-1.5-.4-1.6-.3-.6.4.9.7 1 1.2.2 1.6-.6.4-1.1.5-1.1.2 0-1.6-13.1 11.2-14.9 14.7-.8 1.5-1.8 2.7-2.2 2.7-.4 0-1 1.3-1.4 3-.4 1.9-1.3 3-2.3 3-1.3 0-1.4.2-.3.9.9.6 1 1.1.2 1.5-.6.4-.9 1.2-.5 1.7.3.6-.2 1.7-1.2 2.5-1.1.9-1.3 1.3-.6.9 1.7-.9 1.5.5-.5 2.7-1.4 1.5-1.4 1.9-.3 1.6.9-.2 1.4.3 1.1 1.2-.8 3.3-.5 12 .4 12 .6 0 .3.5-.5 1-1.2.8-1.2 1-.1 1 .9 0 1.2.8.9 2.5-.3 1.3-.1 2.2.3 1.9.8-.5 1.3 2 .7 3-.2.2.4 1.2 1.2 2.2.8 1.1 2.1 3 2.8 4.3 1.1 1.9 1.1 2.2 0 1.6-.7-.3-.4.1.6.9 1.1.9 1.6 1.6 1.2 1.6-.5 0 .3.9 1.7 2s2.9 2.9 3.2 4c.4 1.1 1.2 2 2 2s1.7.9 2 2c.4 1.1 1 1.8 1.4 1.5.4-.2 1.8.5 2.9 1.6 1.2 1.1 2.2 1.7 2.2 1.3 0-.4 1 .2 2.3 1.4 1.3 1.2 2.6 2 2.8 1.8.3-.3.5.3.6 1.4.1 1.3-.4 1.8-1.8 1.7-1-.1-1.9-.5-1.9-1s.7-.6 1.6-.3c1.4.5 1.5.4.4-.9-1.5-1.8-3.5-.6-4.3 2.6-.4 1.5-.2 1.8.7 1 .7-.6 1.6-.7 2-.3 1.4 1.3 3.1.8 4.4-1.3.9-1.3 1.2-1.4.8-.3-.3 1.1.3 1.8 2 2.2 1.3.4 2.7.6 3 .5.4 0 1.1.5 1.6 1.3.8 1 .9 1 .5-.2-.2-.8-.9-1.6-1.5-1.6-.7-.1-1.8-.2-2.4-.3-1-.1-.9-.4.1-1 .9-.6 2.2-.4 3.6.5 1.2.8 2.5 1.1 2.9.7 1-1.1 3.7-1.2 3-.2-.3.5-.9.7-1.3.5-.4-.3-.8.1-.8.9s.3 1.3.5 1c.3-.3 1.2.1 2.1.8 1.4 1.1 1.5 1 .1-.7s-1.2-1.8 3.2-1.5c2.5.2 4.4.1 4.2-.3-.2-.4.1-1 .7-1.4.8-.4.9-.3.5.4s-.3 1.2.3 1.2c.5 0 1.2-.6 1.4-1.3.4-.7.6-.6.6.5.1.9-.5 1.9-1.1 2.1-1 .4-1 .6 0 .6.7.1 1.7-.9 2.2-2.1.5-1.3.9-1.7.9-1.1.1.7.6 1.3 1.2 1.3.5 0 .7-.6.3-1.3-.4-.6-.3-.9.1-.4.5.4 1.7 0 2.7-1 1-.9 1.8-1.3 1.8-.8 0 .4-.8 1.4-1.7 2.1-1.6 1.1-1.5 1.3 1.2 1 1.7-.1 3.8.1 4.7.6 1.3.6 1.6.5 1.2-.6-.3-.8-1.4-1.3-2.7-1.1-1.6.4-1.8.2-.9-.7 1.3-1.3 4.4-2.1 3.9-1-.2.4.4 1.5 1.5 2.4 1 1 1.8 1.3 1.8.7 0-.8.6-.7 1.8.2 1.5 1.3 1.6 1.2.3-.3-1.5-2.1-.2-2.4 1.9-.5 1.2 1 1.2.9.1-.6-1.4-1.7-.2-2.4 1.5-.8 1.5 1.4 5.5-.6 4.8-2.4-.7-1.7-3.4-2.1-3.4-.4 0 .5-.5.7-1 .4-.8-.5-.7-1.2.2-2.3.8-1 .9-1.3.1-.9-.6.4-1.3.2-1.6-.5-.2-.7-.3-.5-.2.4.4 2.3-1.1 2.3-2 .1-.3-1-.1-1.9.5-2.1.6-.2 2.2-1.5 3.5-2.7 1.2-1.3 2.5-2.2 2.7-1.9.3.2 1.7-1.4 3.2-3.6 1.4-2.2 3.1-4 3.8-4 .6 0 .9-.3.6-.6-.4-.3.7-3 2.3-6.1 1.6-3 2.9-6.1 2.9-6.9 0-.8.5-1.4 1.1-1.4.5 0 .7.5.3 1.2-.5.7-.3.8.5.3.9-.5 1-1 .2-1.8-.6-.6-1.1-2-1.1-3.2 0-1.7.2-1.8 1.1-.5.9 1.2.9 1.1.4-.5-1.2-3.2-.6-10.9.9-13.4.7-1 .6-1.2-.4-.6s-1.2.4-.7-.9c.4-1 .3-1.5-.3-1.1-.6.3-1-.3-1-1.5 0-1.4.4-1.9 1.3-1.5.6.4.4 0-.6-.8-1-.9-1.9-3-2-5-.1-1.9-.6-3.2-1.1-2.9-.5.3-.6-.2-.3-1.2.4-1 .3-1.5-.3-1.1-.6.3-1 .1-1-.4 0-1.9.5-2.6 1.5-2.3.6.2.6 0 .2-.5-.5-.4-1.5-.8-2.4-.8-.9 0-2.1-.9-2.7-2-.6-1.1-1.9-2.6-2.9-3.3-.9-.7-1.5-1.8-1.2-2.3.4-.5.1-.9-.6-.9-1.8 0-4.8-3-4.5-4.3.2-.7.1-.9-.1-.5-.9 1.5-2.5.8-1.9-.8.3-.8.2-1.2-.3-.9-.5.3-2.5-.2-4.4-1.1-2.4-1.2-3.4-2.2-3-3.3.4-1.4.3-1.4-.6-.1-1 1.3-1.4 1.2-3.3-1-1.2-1.4-1.9-1.8-1.5-.9.4 1.3.1 1.6-1.4 1.2-1-.3-1.7-.9-1.4-1.3.3-.5-.4-.6-1.5-.3s-2 .1-2-.5c0-.5-.7-1.3-1.6-1.6-1.4-.5-1.5-.4-.5.8 1.1 1.3.9 1.4-1.7.6-1.7-.4-3.3-.6-3.6-.2-.3.3-.6.1-.6-.4 0-.6.5-1.5 1.2-2.2.7-.7 1-1.2.7-1.2-.3 0-1.3.8-2.3 1.8zm25 93.3c.1.5.2 1.4.3 2 0 .5.6.7 1.1.4.6-.4 1.7-.2 2.5.5.9.8 1.5.8 2 0 .3-.6 1.1-.7 1.8-.3.7.4.4.9-.9 1.3-1 .4-2.4.3-3-.2-1.5-1.1-3.6-.7-5 1.1-.9 1.2-1.2.9-1.8-1.3-.4-1.7-.2-3.4.5-4.2 1.2-1.4 2.3-1.1 2.5.7z"/><path d="M87.7 105.7c-1 1-.8 3.3.2 3.3.6 0 .9-.9.8-2-.1-2.3-.1-2.2-1-1.3zM35.4 104.2c1.8 1 1.8 1.2.2 2.4-1.4 1-1.5 1.7-.7 3.2.6 1.1.9 2.1.8 2.3-.1.2 1-1 2.4-2.6 2.4-2.7 3-5.3.9-4-.4.3-1.3-.2-2-1s-1.8-1.5-2.4-1.5c-.6 0-.2.6.8 1.2zm3 3.9c-.9 1-2.1 1.6-2.6 1.3-1.2-.8.8-3.1 2.7-3.1 1.3 0 1.3.3-.1 1.8zM31.3 107c-.1 1.1.2 2 .5 2 .4 0 .8-.9.9-2 .1-1.1-.2-2-.5-2-.4 0-.8.9-.9 2zM100 109c.6 1.1 1.2 2 1.4 2 .2 0 .2-.9-.1-2-.3-1.1-.9-2-1.5-2-.5 0-.4.9.2 2zM29.3 110.5c0 .8.4 1.2.9.9.5-.3.6-1 .3-1.5-.9-1.3-1.2-1.1-1.2.6zM32 111.5c-.7.9-.8 1.5-.2 1.5.5 0 1.2-.7 1.6-1.5.3-.8.4-1.5.2-1.5s-.9.7-1.6 1.5z"/></svg>