<svg width="18" height="18" viewBox="0 0 18 18" fill="none" xmlns="http://www.w3.org/2000/svg">
<path d="M16.188 3.59413C16.0321 3.59878 15.8842 3.66393 15.7755 3.77577L6.59971 12.9516L2.82393 9.17577C2.76864 9.11819 2.70242 9.07222 2.62914 9.04054C2.55586 9.00887 2.477 8.99214 2.39718 8.99133C2.31736 8.99052 2.23817 9.00564 2.16427 9.03581C2.09036 9.06599 2.02322 9.11061 1.96677 9.16705C1.91032 9.2235 1.86571 9.29064 1.83553 9.36455C1.80536 9.43846 1.79023 9.51764 1.79105 9.59746C1.79186 9.67729 1.80859 9.75615 1.84026 9.82943C1.87193 9.9027 1.91791 9.96892 1.97549 10.0242L6.17549 14.2242C6.28802 14.3367 6.44061 14.3999 6.59971 14.3999C6.75881 14.3999 6.9114 14.3367 7.02393 14.2242L16.6239 4.62421C16.7106 4.53993 16.7698 4.43143 16.7938 4.31292C16.8178 4.19441 16.8054 4.07141 16.7583 3.96006C16.7112 3.84871 16.6315 3.75419 16.5297 3.6889C16.428 3.6236 16.3089 3.59057 16.188 3.59413Z" fill="#00DD73"/>
</svg>
