<?xml version="1.0" standalone="no"?>
<!DOCTYPE svg PUBLIC "-//W3C//DTD SVG 20010904//EN"
 "http://www.w3.org/TR/2001/REC-SVG-20010904/DTD/svg10.dtd">
<svg version="1.0" xmlns="http://www.w3.org/2000/svg"
 width="128.000000pt" height="128.000000pt" viewBox="0 0 128.000000 128.000000"
 preserveAspectRatio="xMidYMid meet">
<metadata>
Created by potrace 1.14, written by Peter Selinger 2001-2017
</metadata>
<g transform="translate(0.000000,128.000000) scale(0.100000,-0.100000)"
fill="#000000" stroke="none">
<path d="M646 1152 c-9 -10 -31 -20 -49 -20 -44 -3 -65 -7 -73 -15 -4 -4 -15
-7 -25 -7 -9 0 -30 -7 -45 -15 -16 -8 -38 -12 -49 -9 -15 4 -16 3 -6 -4 9 -7
10 -12 2 -16 -6 -4 -11 -5 -11 -2 0 16 -131 -112 -149 -147 -8 -15 -18 -27
-22 -27 -4 0 -10 -13 -14 -30 -4 -19 -13 -30 -23 -30 -13 0 -14 -2 -3 -9 9 -6
10 -11 2 -15 -6 -4 -9 -12 -5 -17 3 -6 -2 -17 -12 -25 -11 -9 -13 -13 -6 -9
17 9 15 -5 -5 -27 -14 -15 -14 -19 -3 -16 9 2 14 -3 11 -12 -8 -33 -5 -120 4
-120 6 0 3 -5 -5 -10 -12 -8 -12 -10 -1 -10 9 0 12 -8 9 -25 -3 -13 -1 -22 3
-19 8 5 13 -20 7 -30 -2 -2 4 -12 12 -22 8 -11 21 -30 28 -43 11 -19 11 -22 0
-16 -7 3 -4 -1 6 -9 11 -9 16 -16 12 -16 -5 0 3 -9 17 -20 14 -11 29 -29 32
-40 4 -11 12 -20 20 -20 8 0 17 -9 20 -20 4 -11 10 -18 14 -15 4 2 18 -5 29
-16 12 -11 22 -17 22 -13 0 4 10 -2 23 -14 13 -12 26 -20 28 -18 3 3 5 -3 6
-14 1 -13 -4 -18 -18 -17 -10 1 -19 5 -19 10 0 5 7 6 16 3 14 -5 15 -4 4 9
-15 18 -35 6 -43 -26 -4 -15 -2 -18 7 -10 7 6 16 7 20 3 14 -13 31 -8 44 13 9
13 12 14 8 3 -3 -11 3 -18 20 -22 13 -4 27 -6 30 -5 4 0 11 -5 16 -13 8 -10 9
-10 5 2 -2 8 -9 16 -15 16 -7 1 -18 2 -24 3 -10 1 -9 4 1 10 9 6 22 4 36 -5
12 -8 25 -11 29 -7 10 11 37 12 30 2 -3 -5 -9 -7 -13 -5 -4 3 -8 -1 -8 -9 0
-8 3 -13 5 -10 3 3 12 -1 21 -8 14 -11 15 -10 1 7 -14 17 -12 18 32 15 25 -2
44 -1 42 3 -2 4 1 10 7 14 8 4 9 3 5 -4 -4 -7 -3 -12 3 -12 5 0 12 6 14 13 4
7 6 6 6 -5 1 -9 -5 -19 -11 -21 -10 -4 -10 -6 0 -6 7 -1 17 9 22 21 5 13 9 17
9 11 1 -7 6 -13 12 -13 5 0 7 6 3 13 -4 6 -3 9 1 4 5 -4 17 0 27 10 10 9 18
13 18 8 0 -4 -8 -14 -17 -21 -16 -11 -15 -13 12 -10 17 1 38 -1 47 -6 13 -6
16 -5 12 6 -3 8 -14 13 -27 11 -16 -4 -18 -2 -9 7 13 13 44 21 39 10 -2 -4 4
-15 15 -24 10 -10 18 -13 18 -7 0 8 6 7 18 -2 15 -13 16 -12 3 3 -15 21 -2 24
19 5 12 -10 12 -9 1 6 -14 17 -2 24 15 8 15 -14 55 6 48 24 -7 17 -34 21 -34
4 0 -5 -5 -7 -10 -4 -8 5 -7 12 2 23 8 10 9 13 1 9 -6 -4 -13 -2 -16 5 -2 7
-3 5 -2 -4 4 -23 -11 -23 -20 -1 -3 10 -1 19 5 21 6 2 22 15 35 27 12 13 25
22 27 19 3 -2 17 14 32 36 14 22 31 40 38 40 6 0 9 3 6 6 -4 3 7 30 23 61 16
30 29 61 29 69 0 8 5 14 11 14 5 0 7 -5 3 -12 -5 -7 -3 -8 5 -3 9 5 10 10 2
18 -6 6 -11 20 -11 32 0 17 2 18 11 5 9 -12 9 -11 4 5 -12 32 -6 109 9 134 7
10 6 12 -4 6 -10 -6 -12 -4 -7 9 4 10 3 15 -3 11 -6 -3 -10 3 -10 15 0 14 4
19 13 15 6 -4 4 0 -6 8 -10 9 -19 30 -20 50 -1 19 -6 32 -11 29 -5 -3 -6 2 -3
12 4 10 3 15 -3 11 -6 -3 -10 -1 -10 4 0 19 5 26 15 23 6 -2 6 0 2 5 -5 4 -15
8 -24 8 -9 0 -21 9 -27 20 -6 11 -19 26 -29 33 -9 7 -15 18 -12 23 4 5 1 9 -6
9 -18 0 -48 30 -45 43 2 7 1 9 -1 5 -9 -15 -25 -8 -19 8 3 8 2 12 -3 9 -5 -3
-25 2 -44 11 -24 12 -34 22 -30 33 4 14 3 14 -6 1 -10 -13 -14 -12 -33 10 -12
14 -19 18 -15 9 4 -13 1 -16 -14 -12 -10 3 -17 9 -14 13 3 5 -4 6 -15 3 -11
-3 -20 -1 -20 5 0 5 -7 13 -16 16 -14 5 -15 4 -5 -8 11 -13 9 -14 -17 -6 -17
4 -33 6 -36 2 -3 -3 -6 -1 -6 4 0 6 5 15 12 22 7 7 10 12 7 12 -3 0 -13 -8
-23 -18z m250 -933 c1 -5 2 -14 3 -20 0 -5 6 -7 11 -4 6 4 17 2 25 -5 9 -8 15
-8 20 0 3 6 11 7 18 3 7 -4 4 -9 -9 -13 -10 -4 -24 -3 -30 2 -15 11 -36 7 -50
-11 -9 -12 -12 -9 -18 13 -4 17 -2 34 5 42 12 14 23 11 25 -7z"/>
<path d="M877 223 c-10 -10 -8 -33 2 -33 6 0 9 9 8 20 -1 23 -1 22 -10 13z"/>
<path d="M354 238 c18 -10 18 -12 2 -24 -14 -10 -15 -17 -7 -32 6 -11 9 -21 8
-23 -1 -2 10 10 24 26 24 27 30 53 9 40 -4 -3 -13 2 -20 10 -7 8 -18 15 -24
15 -6 0 -2 -6 8 -12z m30 -39 c-9 -10 -21 -16 -26 -13 -12 8 8 31 27 31 13 0
13 -3 -1 -18z"/>
<path d="M313 210 c-1 -11 2 -20 5 -20 4 0 8 9 9 20 1 11 -2 20 -5 20 -4 0 -8
-9 -9 -20z"/>
<path d="M1000 190 c6 -11 12 -20 14 -20 2 0 2 9 -1 20 -3 11 -9 20 -15 20 -5
0 -4 -9 2 -20z"/>
<path d="M293 175 c0 -8 4 -12 9 -9 5 3 6 10 3 15 -9 13 -12 11 -12 -6z"/>
<path d="M320 165 c-7 -9 -8 -15 -2 -15 5 0 12 7 16 15 3 8 4 15 2 15 -2 0 -9
-7 -16 -15z"/>
</g>
</svg>
